<?xml version="1.0" encoding="iso-8859-1"?>
<!-- Generator: Adobe Illustrator 19.0.0, SVG Export Plug-In . SVG Version: 6.00 Build 0)  -->
<svg xmlns="http://www.w3.org/2000/svg" xmlns:xlink="http://www.w3.org/1999/xlink" version="1.1" id="Layer_1" x="0px" y="0px" viewBox="0 0 511.999 511.999" style="enable-background:new 0 0 511.999 511.999;" xml:space="preserve" width="512" height="512">
<g>
	<g>
		<path style="fill:#334151;" d="M256.006,442.923c-46.65,0-90.493-18.16-123.454-51.133    C99.605,358.828,81.46,314.999,81.46,268.376s18.145-90.452,51.093-123.414c32.96-32.974,76.804-51.134,123.454-51.134    c96.246,0,174.547,78.302,174.547,174.547C430.554,364.621,352.252,442.923,256.006,442.923z"/>
		<g>
			<path style="fill:#F9EE80;" d="M256.006,130.647c-75.944,0-137.729,61.785-137.729,137.729     c0,75.944,61.785,137.729,137.729,137.729c75.944,0,137.729-61.785,137.729-137.729     C393.736,192.432,331.951,130.647,256.006,130.647z"/>
		</g>
		<path style="fill:#FFCA5E;" d="M177.534,381.496c22.281,15.504,49.331,24.609,78.473,24.609c29.134,0,56.179-9.101,78.457-24.598    c-9.232-21.354-8.207-45.752,3.171-65.483c11.482-19.911,32.291-33.058,55.567-35.584c0.347-3.977,0.534-7.998,0.534-12.063    c0-55.173-32.615-102.864-79.573-124.83c-13.524,17.897-35.842,29.402-58.381,29.402c-23.143,0-44.663-10.994-58.285-29.236    c-46.768,22.039-79.219,69.629-79.219,124.664c0,4.114,0.192,8.184,0.547,12.207c23.338,2.568,44.127,15.651,55.537,35.437    c9.472,16.43,11.867,36.003,6.745,55.114C180.147,374.712,178.951,378.173,177.534,381.496z"/>
		<path style="fill:#485C70;" d="M312.349,404.243c8.653,15.05,21.118,28.037,36.905,37.136    c19.706,11.379,41.608,15.476,62.613,13.138c5.728-0.638,7.991,7.162,2.817,9.7c-46.663,22.895-103.51,22.876-151.902-5.076    c-2.308-1.319-4.572-2.713-6.79-4.137c-2.203,1.424-4.467,2.818-6.775,4.137c-48.391,27.951-105.237,27.97-151.891,5.077    c-5.174-2.539-2.91-10.337,2.818-9.7c20.997,2.335,42.899-1.763,62.601-13.139c48.243-27.806,65.46-92.027,37.607-140.343    c-27.801-48.209-92.124-65.391-140.358-37.608c-19.694,11.377-34.194,28.297-42.671,47.649c-2.312,5.278-10.198,3.339-9.809-2.41    c3.502-51.85,31.938-101.073,80.33-129.013c2.278-1.319,4.557-2.563,6.88-3.762c-0.195-3.193-0.3-6.43-0.3-9.683    c0-55.879,28.402-105.12,71.56-134.082c4.785-3.211,10.407,2.648,6.992,7.289c-12.521,17.019-19.915,38.034-19.915,60.781    c0,17.822,4.542,34.58,12.516,49.194c17.432,31.912,51.293,53.556,90.204,53.556c37.087,0,72.718-21.1,90.339-53.781    c7.929-14.539,12.411-31.222,12.411-48.969c0-22.748-7.408-43.764-19.935-60.783c-3.416-4.641,2.206-10.501,6.992-7.29    c43.161,28.962,71.565,78.204,71.565,134.085c0,3.193-0.09,6.355-0.27,9.488c2.443,1.259,4.856,2.578,7.27,3.957    c48.399,27.943,76.836,77.175,80.332,129.033c0.388,5.75-7.498,7.689-9.809,2.411c-8.477-19.36-22.978-36.288-42.688-47.669    c-48.42-27.96-112.42-10.813-140.343,37.608C292.884,333.573,294.545,373.275,312.349,404.243z"/>
		<path style="fill:#FFCA5E;" d="M285.682,268.376c0-16.385-13.29-29.675-29.675-29.675c-16.403,0-29.675,13.29-29.675,29.675    c0,16.385,13.272,29.675,29.675,29.675C272.392,298.051,285.682,284.761,285.682,268.376z"/>
	</g>
	<g>
		<path d="M256.006,305.554c20.498,0,37.175-16.676,37.175-37.175s-16.677-37.175-37.175-37.175s-37.175,16.677-37.175,37.175    C218.832,288.877,235.508,305.554,256.006,305.554z M256.006,246.204c12.228,0,22.175,9.948,22.175,22.175    c0,12.227-9.947,22.175-22.175,22.175s-22.175-9.948-22.175-22.175C233.832,256.151,243.779,246.204,256.006,246.204z"/>
		<path d="M9.626,321.297c6.067,1.486,12.056-1.478,14.566-7.207c8.178-18.668,21.855-33.94,39.545-44.16    c3.343-1.926,6.77-3.613,10.258-5.079c-0.023,1.182-0.036,2.359-0.036,3.527c0,48.625,18.925,94.337,53.289,128.716    c12.429,12.434,26.386,22.895,41.599,31.203c-3.129,2.386-6.405,4.603-9.854,6.59c-17.701,10.221-37.766,14.433-58.021,12.18    c-6.214-0.692-11.778,3.014-13.525,9.011c-1.749,6.002,0.955,12.119,6.575,14.876c23.609,11.585,49.108,17.344,74.547,17.344    c29.187,0,58.294-7.582,84.369-22.642c1.01-0.577,2.026-1.176,3.061-1.803c1.041,0.631,2.049,1.224,3.032,1.786    c26.096,15.073,55.209,22.658,84.409,22.657c25.437-0.001,50.942-5.761,74.549-17.343c5.62-2.757,8.323-8.875,6.575-14.877    c-1.747-5.997-7.31-9.703-13.526-9.01c-20.261,2.256-40.328-1.955-58.038-12.182c-3.469-1.999-6.798-4.23-9.972-6.668    c26.537-14.488,49.108-35.342,65.704-60.86c19.183-29.497,29.323-63.722,29.323-98.978c0-1.175-0.013-2.358-0.037-3.545    c3.488,1.479,6.902,3.176,10.222,5.094c17.707,10.225,31.389,25.503,39.568,44.183c2.509,5.729,8.499,8.693,14.564,7.208    c6.072-1.486,10.019-6.886,9.598-13.132c-3.799-56.35-35.225-106.826-84.094-135.041c-1.122-0.641-2.217-1.254-3.294-1.845    c0.049-1.691,0.074-3.392,0.074-5.088c0-56.394-27.995-108.847-74.886-140.313c-5.198-3.488-11.849-2.77-16.172,1.746    c-4.319,4.512-4.747,11.181-1.04,16.219c12.086,16.421,18.475,35.903,18.475,56.337c0,4.179-0.282,8.343-0.824,12.463    c-57.307-34.83-131.559-34.851-188.806,0.099c-0.552-4.156-0.841-8.353-0.841-12.562c0-20.443,6.383-39.923,18.457-56.336    c3.706-5.038,3.277-11.707-1.042-16.218c-4.323-4.514-10.973-5.231-16.17-1.744c-46.889,31.466-74.881,83.918-74.881,140.31    c0,1.745,0.029,3.516,0.087,5.3c-0.977,0.54-1.946,1.088-2.917,1.65c-11.532,6.658-22.271,14.677-31.918,23.834    c-3.004,2.852-3.128,7.599-0.276,10.603c2.852,3.004,7.599,3.128,10.603,0.277c8.793-8.346,18.581-15.655,29.099-21.728    c2.159-1.25,4.306-2.423,6.563-3.588c2.64-1.363,4.227-4.156,4.046-7.122c-0.19-3.108-0.286-6.212-0.286-9.226    c0-47.093,21.425-91.17,57.898-120.278c-9.364,16.478-14.261,35.004-14.261,54.267c0,21.264,6.459,42.952,18.308,60.845    c0.021,0.032,0.042,0.064,0.064,0.096c20.329,30.629,54.704,49.309,91.85,49.309c37.817,0,73.9-20.28,93.681-52.122    c10.756-17.314,16.568-37.749,16.568-58.128c0-19.255-4.902-37.784-14.274-54.265c36.471,29.108,57.896,73.186,57.896,120.277    c0,3.038-0.087,6.085-0.258,9.058c-0.17,2.958,1.417,5.74,4.052,7.097c2.267,1.168,4.552,2.412,6.956,3.786    c40.783,23.546,68.241,64.149,75.209,110.294c-9.59-16.361-23.19-29.876-39.875-39.511    c-25.154-14.524-54.825-18.285-83.549-10.588c-28.726,7.697-52.535,25.79-67.041,50.944    c-18.474,32.036-19.138,71.924-2.108,105.472c9.482,18.773,24.225,34.581,42.462,45.112c16.682,9.633,35.178,14.655,54.137,14.781    c-43.449,17.031-92.335,13.542-133.137-10.025c-2.008-1.147-4.122-2.436-6.459-3.937c-2.476-1.59-5.652-1.585-8.123,0.012    c-2.268,1.465-4.369,2.75-6.456,3.941c-40.775,23.552-89.658,27.039-133.1,10.008c18.954-0.128,37.449-5.149,54.125-14.778    c25.07-14.451,43.125-38.258,50.838-67.037c7.713-28.777,3.991-58.449-10.479-83.551c-18.331-31.787-51.447-51.012-86.279-54.186    c-0.163-0.025-0.325-0.053-0.49-0.067c-22.038-1.91-44.649,2.834-63.839,13.898c-16.673,9.633-30.266,23.14-39.853,39.487    c3.65-24.113,12.953-47.033,27.247-66.921c2.417-3.364,1.651-8.05-1.713-10.468s-8.05-1.65-10.467,1.713    c-18.428,25.64-29.294,55.867-31.425,87.416C-0.391,314.411,3.555,319.811,9.626,321.297z M256.006,101.332    c32.445,0,63.727,9.288,90.808,26.91c-1.441,4.688-3.243,9.262-5.396,13.669c-1.093,2.237-2.26,4.438-3.526,6.583    c-24.184-16.608-52.325-25.344-81.885-25.344c-29.694,0-57.942,8.809-82.191,25.553c-3.689-6.195-6.638-12.862-8.81-19.735    c-0.065-0.208-0.126-0.417-0.19-0.625C191.853,110.653,223.264,101.332,256.006,101.332z M255.782,195.451    c-28.655,0-55.403-12.87-73.31-34.466c21.709-14.949,46.97-22.836,73.534-22.836c26.432,0,51.589,7.816,73.233,22.632    C311.366,182.258,284.142,195.452,255.782,195.451z M318.143,304.787c12.503-21.681,33.076-37.289,57.929-43.949    c3.254-0.872,6.522-1.57,9.793-2.104c0.238,3.216,0.371,6.439,0.371,9.646c0,19.067-4.068,37.478-12.09,54.72    c-1.747,3.756-0.119,8.217,3.636,9.964c3.755,1.748,8.217,0.12,9.964-3.636c8.951-19.24,13.49-39.779,13.49-61.048    c0-3.617-0.137-7.256-0.408-10.883c7.452-0.05,14.818,0.764,22.008,2.431c0.145,2.842,0.218,5.67,0.218,8.452    c0,32.345-9.301,63.743-26.898,90.799c-16.18,24.878-38.53,44.941-64.866,58.288c-0.566-0.615-9.377-11.62-12.441-16.962    c-0.184-0.319-0.354-0.643-0.533-0.964c20.45-9.757,38.475-24.271,52.482-42.328c2.539-3.273,1.944-7.984-1.329-10.523    c-3.273-2.539-7.984-1.943-10.523,1.329c-12.542,16.168-28.674,29.157-46.961,37.909    C301.973,359.206,304.004,329.305,318.143,304.787z M88.96,268.379c0-2.754,0.071-5.56,0.213-8.388    c7.16-1.633,14.522-2.43,22.003-2.367c-0.265,3.583-0.398,7.179-0.398,10.755c0,29.355,8.755,57.657,25.317,81.845    c14.623,21.356,34.418,38.278,57.583,49.311c-3.655,6.543-8.02,12.573-13.044,18.021c-15.751-7.972-30.121-18.404-42.776-31.065    C106.325,354.945,88.96,312.999,88.96,268.379z M193.854,304.786c12.471,21.632,15.662,47.265,8.985,72.175    c-0.817,3.048-1.771,6.03-2.85,8.941c-20.714-9.897-38.428-25.035-51.519-44.153c-14.847-21.683-22.694-47.054-22.694-73.371    c0-3.171,0.13-6.358,0.362-9.536C153.679,263.306,179.222,279.412,193.854,304.786z"/>
	</g>
</g>















</svg>
